<?xml version="1.0" encoding="UTF-8" standalone="no"?>
<!DOCTYPE svg PUBLIC "-//W3C//DTD SVG 20010904//EN"
              "http://www.w3.org/TR/2001/REC-SVG-20010904/DTD/svg10.dtd">

<svg xmlns="http://www.w3.org/2000/svg"
     width="33.07in" height="23.385in"
     viewBox="0 0 6614 4677">
  <path id="Unnamed"
        fill="none" stroke="black" stroke-width="1"
        d="M 2467.79,1327.78
           C 2476.73,1323.31 3241.21,880.71 3241.21,880.71
             3241.21,880.71 3373.29,792.60 3502.62,807.75
             3620.92,821.60 3737.45,938.83 3737.45,938.83
             3737.45,938.83 3871.57,1126.60 3871.57,1126.60
             3871.57,1126.60 3949.19,1178.05 4052.33,1188.85
             4140.20,1198.04 4256.04,1166.84 4256.04,1166.84
             4256.04,1166.84 4380.03,1095.50 4474.65,1000.88
             4588.38,887.14 4676.28,746.60 4676.28,746.60
             4676.28,746.60 4764.25,633.19 4864.92,605.53
             4967.64,577.31 5083.11,634.83 5083.11,634.83
             5083.11,634.83 5216.15,686.46 5313.90,685.28
             5401.07,684.23 5454.17,630.36 5454.17,630.36
             5454.17,630.36 5557.21,549.82 5627.00,570.08
             5695.80,590.06 5739.24,711.87 5739.24,711.87
             5739.24,711.87 5787.93,816.10 5762.87,889.10
             5736.55,965.78 5628.53,1010.36 5628.53,1010.36
             5628.53,1010.36 1564.72,3317.21 1564.72,3317.21
             1564.72,3317.21 1433.61,3367.24 1380.37,3450.91
             1324.16,3539.24 1351.52,3663.96 1351.52,3663.96
             1351.52,3663.96 1394.12,3757.98 1471.35,3792.68
             1548.36,3827.27 1654.13,3800.04 1654.13,3800.04
             1654.13,3800.04 3496.04,3290.39 3496.04,3290.39
             3496.04,3290.39 3702.41,3243.68 3899.02,3263.34
             4081.92,3281.63 4276.91,3368.80 4276.91,3368.80
             4276.91,3368.80 4530.65,3444.95 4736.83,3380.52
             4959.22,3311.02 5114.40,3098.15 5114.40,3098.15
             5114.40,3098.15 5275.81,2823.84 5275.81,2823.84
             5275.81,2823.84 5351.02,2678.18 5460.87,2680.49
             5509.91,2681.52 5574.07,2691.38 5623.37,2725.22
             5676.83,2761.91 5717.29,2829.57 5717.29,2829.57
             5717.29,2829.57 6093.47,3527.33 6093.47,3527.33
             6093.47,3527.33 6188.02,3676.60 6176.42,3799.98
             6163.50,3937.37 5948.87,4119.36 5948.87,4119.36
             5948.87,4119.36 5734.57,4264.22 5734.57,4264.22
             5734.57,4264.22 5590.91,4336.56 5490.80,4314.20
             5381.22,4289.72 5288.76,4180.04 5288.76,4180.04
             5288.76,4180.04 5136.76,3996.75 5136.76,3996.75
             5136.76,3996.75 5049.44,3909.95 4950.43,3875.51
             4844.06,3838.51 4725.46,3853.69 4725.46,3853.69
             4725.46,3853.69 2829.91,3920.75 2829.91,3920.75
             2829.91,3920.75 2547.02,3934.46 2313.58,3969.54
             2119.19,3998.75 1967.08,4050.39 1967.08,4050.39
             1967.08,4050.39 1289.78,4226.52 1289.78,4226.52
             1289.78,4226.52 1122.59,4279.28 974.28,4262.23
             806.94,4243.00 657.45,4138.51 657.45,4138.51
             657.45,4138.51 465.20,4008.61 474.08,3868.67
             483.08,3726.97 684.01,3576.51 684.01,3576.51
             684.01,3576.51 1845.07,2618.20 1845.07,2618.20
             1845.07,2618.20 1985.95,2515.45 2027.24,2391.59
             2066.37,2274.21 2007.25,2123.88 2007.25,2123.88
             2007.25,2123.88 1917.90,1864.25 1917.90,1864.25
             1917.90,1864.25 1881.21,1761.06 1921.67,1674.19
             1956.83,1598.68 2073.73,1547.47 2073.73,1547.47
             2073.73,1547.47 2458.85,1332.25 2467.79,1327.78 Z" />
</svg>
