<?xml version="1.0" encoding="UTF-8" standalone="no"?>
<!DOCTYPE svg PUBLIC "-//W3C//DTD SVG 20010904//EN"
              "http://www.w3.org/TR/2001/REC-SVG-20010904/DTD/svg10.dtd">

<svg xmlns="http://www.w3.org/2000/svg"
     width="33.07in" height="23.385in"
     viewBox="0 0 6614 4677">
  <path id="Unnamed #2"
        fill="none" stroke="black" stroke-width="1"
        d="M 4460.50,3817.00
           C 4460.50,3817.00 3190.00,4136.00 3190.00,4136.00
             3190.00,4136.00 3064.46,4180.52 2971.19,4138.62
             2874.76,4095.30 2600.89,3656.15 2406.71,3332.96
             2199.79,2988.57 2007.50,2629.00 2007.50,2629.00
             2007.50,2629.00 1838.52,2267.69 1639.54,1957.70
             1463.13,1682.86 882.69,1084.04 890.33,921.12
             896.20,795.85 1281.50,874.50 1281.50,874.50
             1281.50,874.50 3822.50,1166.00 3822.50,1166.00
             3822.50,1166.00 4137.45,1182.84 4171.98,1295.72
             4208.87,1416.33 3965.50,1633.50 3965.50,1633.50
             3965.50,1633.50 3783.95,1808.81 3517.70,1837.11
             3216.82,1869.08 2827.00,1754.50 2827.00,1754.50
             2827.00,1754.50 2476.86,1701.64 2352.83,1819.15
             2216.22,1948.57 2304.50,2249.50 2304.50,2249.50
             2304.50,2249.50 2535.50,2678.50 2535.50,2678.50
             2535.50,2678.50 2678.30,2890.63 2840.33,2904.47
             3000.03,2918.12 3179.00,2733.50 3179.00,2733.50
             3179.00,2733.50 3296.74,2566.57 3453.55,2488.82
             3623.46,2404.58 3833.50,2409.00 3833.50,2409.00
             3833.50,2409.00 5600.53,2360.41 5724.28,2440.07
             5839.47,2514.21 6108.21,3192.92 5980.86,3309.87
             5839.44,3439.74 5439.50,3569.50 5439.50,3569.50
             5439.50,3569.50 4460.50,3817.00 4460.50,3817.00 Z" />
</svg>
