<?xml version="1.0" encoding="UTF-8" standalone="no"?>
<!DOCTYPE svg PUBLIC "-//W3C//DTD SVG 20010904//EN"
              "http://www.w3.org/TR/2001/REC-SVG-20010904/DTD/svg10.dtd">

<svg xmlns="http://www.w3.org/2000/svg"
     width="33.07in" height="23.3867in"
     viewBox="0 0 9921 7016">
  <path id="Unnamed #2"
        fill="none" stroke="black" stroke-width="1"
        d="M 6690.75,5725.91
           C 6690.75,5725.91 4785.00,6204.44 4785.00,6204.44
             4785.00,6204.44 4596.69,6271.23 4456.78,6208.37
             4312.14,6143.39 3901.34,5484.62 3610.07,4999.80
             3299.68,4483.17 3011.25,3943.78 3011.25,3943.78
             3011.25,3943.78 2757.78,3401.78 2459.31,2936.76
             2194.69,2524.47 1312.38,1776.51 1323.84,1532.11
             1327.75,1448.61 1359.79,1302.01 1491.41,1275.96
             1656.02,1243.38 1946.26,1283.14 1946.26,1283.14
             1946.26,1283.14 5603.69,1698.55 5603.69,1698.55
             5603.69,1698.55 5944.79,1740.72 6101.45,1806.32
             6301.58,1857.63 6296.32,2042.94 6311.84,2093.69
             6367.18,2274.61 6014.21,2524.74 6014.21,2524.74
             6014.21,2524.74 5675.93,2713.41 5276.55,2755.86
             4825.23,2803.82 4258.07,2644.64 4258.07,2644.64
             4258.07,2644.64 3715.29,2552.64 3529.25,2728.92
             3324.33,2923.06 3456.75,3374.49 3456.75,3374.49
             3456.75,3374.49 3803.25,4018.04 3803.25,4018.04
             3803.25,4018.04 4017.45,4336.25 4260.50,4357.02
             4500.05,4377.49 4768.50,4100.54 4768.50,4100.54
             4768.50,4100.54 4945.11,3850.13 5180.33,3733.50
             5435.19,3607.13 5750.25,3613.76 5750.25,3613.76
             5750.25,3613.76 7531.51,3514.67 8275.71,3562.87
             8439.24,3573.46 8691.25,3631.14 8724.69,3652.67
             8897.48,3763.89 9162.32,4789.72 8971.29,4965.16
             8759.16,5159.98 8159.25,5354.63 8159.25,5354.63
             8159.25,5354.63 6690.75,5725.91 6690.75,5725.91 Z" />
</svg>
